<?xml version="1.0" encoding="utf-8"?>
<!-- Generator: Adobe Illustrator 23.0.0, SVG Export Plug-In . SVG Version: 6.00 Build 0)  -->
<svg version="1.1" id="Calque_1" xmlns="http://www.w3.org/2000/svg" x="0px" y="0px"
     viewBox="0 0 512 512" style="enable-background:new 0 0 512 512;" xml:space="preserve">
<style type="text/css">
	.st0{fill:#FF6A49;}
	.st1{fill:#FFFFFF;}
	.st2{fill:#292929;}
</style>
<path class="st0" d="M486.4,512H25.6C11.4,512,0,500.6,0,486.4V25.6C0,11.4,11.4,0,25.6,0h460.9C500.6,0,512,11.4,512,25.6v460.9
	C512,500.6,500.6,512,486.4,512z"/>
<path class="st1" d="M-528.6,356.4c0-1.8,0.4-3.4,1.1-4.9c0.7-1.4,1.7-2.6,3-3.3c1.3-0.8,2.7-1.2,4.4-1.2c2.5,0,4.6,0.9,6.1,2.6
	c1.6,1.7,2.3,4.1,2.3,7v0.2c0,1.8-0.3,3.4-1,4.9c-0.7,1.4-1.7,2.5-3,3.3c-1.3,0.8-2.7,1.2-4.4,1.2c-2.5,0-4.5-0.9-6.1-2.6
	c-1.5-1.7-2.3-4.1-2.3-6.9L-528.6,356.4L-528.6,356.4z M-525.4,356.8c0,2.1,0.5,3.7,1.4,4.9c1,1.2,2.2,1.9,3.8,1.9s2.9-0.6,3.8-1.9
	c0.9-1.3,1.4-3,1.4-5.3c0-2-0.5-3.7-1.5-4.9c-1-1.3-2.2-1.9-3.8-1.9s-2.8,0.6-3.8,1.9C-524.9,352.7-525.4,354.5-525.4,356.8z
	 M-492.2,356.8c0,2.8-0.6,5.1-1.9,6.8c-1.3,1.7-3,2.6-5.2,2.6s-4-0.7-5.3-2.1v8.9h-3.2v-25.6h2.9l0.2,2.1c1.3-1.6,3.1-2.4,5.4-2.4
	c2.2,0,4,0.8,5.3,2.5c1.3,1.7,1.9,4,1.9,7L-492.2,356.8L-492.2,356.8z M-495.3,356.5c0-2.1-0.4-3.7-1.3-4.9
	c-0.9-1.2-2.1-1.8-3.7-1.8c-1.9,0-3.3,0.8-4.3,2.5v8.8c0.9,1.7,2.4,2.5,4.3,2.5c1.5,0,2.7-0.6,3.6-1.8S-495.3,358.8-495.3,356.5z
	 M-480.5,366.2c-2.5,0-4.5-0.8-6.1-2.5c-1.6-1.7-2.4-3.9-2.4-6.6v-0.5c0-1.8,0.3-3.5,1-4.9s1.7-2.6,2.9-3.4c1.3-0.8,2.6-1.2,4.1-1.2
	c2.4,0,4.3,0.8,5.6,2.4c1.3,1.6,2,3.9,2,6.8v1.3h-12.5c0,1.8,0.6,3.3,1.6,4.4s2.3,1.7,3.9,1.7c1.1,0,2.1-0.2,2.8-0.7
	c0.8-0.5,1.5-1.1,2-1.8l1.9,1.5C-475.1,365-477.4,366.2-480.5,366.2z M-480.9,349.6c-1.3,0-2.3,0.5-3.2,1.4
	c-0.9,0.9-1.4,2.2-1.6,3.9h9.3v-0.2c-0.1-1.6-0.5-2.8-1.3-3.7C-478.5,350.1-479.5,349.6-480.9,349.6z M-466.6,347.4l0.1,2.3
	c1.4-1.8,3.3-2.7,5.5-2.7c3.9,0,5.9,2.2,5.9,6.6v12.2h-3.2v-12.2c0-1.3-0.3-2.3-0.9-3c-0.6-0.6-1.5-1-2.8-1c-1,0-1.9,0.3-2.7,0.8
	c-0.8,0.5-1.4,1.3-1.8,2.2v13.2h-3.2v-18.4H-466.6z"/>
<path class="st1" d="M-448.7,365.9v-16h-2.9v-2.4h2.9v-1.9c0-2,0.5-3.5,1.6-4.6c1.1-1.1,2.6-1.6,4.5-1.6c0.7,0,1.5,0.1,2.2,0.3
	l-0.2,2.6c-0.5-0.1-1.1-0.2-1.7-0.2c-1,0-1.8,0.3-2.4,0.9c-0.6,0.6-0.8,1.4-0.8,2.6v1.9h3.9v2.4h-3.9v16
	C-445.5,365.9-448.7,365.9-448.7,365.9z M-430.8,366.2c-2.5,0-4.5-0.8-6.1-2.5c-1.6-1.7-2.4-3.9-2.4-6.6v-0.5c0-1.8,0.3-3.5,1-4.9
	c0.7-1.4,1.7-2.6,2.9-3.4c1.3-0.8,2.6-1.2,4.1-1.2c2.4,0,4.3,0.8,5.6,2.4c1.3,1.6,2,3.9,2,6.8v1.3h-12.5c0,1.8,0.6,3.3,1.6,4.4
	s2.3,1.7,3.9,1.7c1.1,0,2.1-0.2,2.8-0.7c0.8-0.5,1.5-1.1,2-1.8l1.9,1.5C-425.4,365-427.7,366.2-430.8,366.2z M-431.2,349.6
	c-1.3,0-2.3,0.5-3.2,1.4c-0.9,0.9-1.4,2.2-1.6,3.9h9.3v-0.2c-0.1-1.6-0.5-2.8-1.3-3.7C-428.9,350.1-429.9,349.6-431.2,349.6z
	 M-412.3,366.2c-2.5,0-4.5-0.8-6.1-2.5c-1.6-1.7-2.4-3.9-2.4-6.6v-0.5c0-1.8,0.3-3.5,1-4.9c0.7-1.4,1.7-2.6,2.9-3.4
	c1.3-0.8,2.6-1.2,4.1-1.2c2.4,0,4.3,0.8,5.6,2.4c1.3,1.6,2,3.9,2,6.8v1.3h-12.5c0,1.8,0.6,3.3,1.6,4.4s2.3,1.7,3.9,1.7
	c1.1,0,2.1-0.2,2.8-0.7c0.8-0.5,1.5-1.1,2-1.8l1.9,1.5C-406.9,365-409.2,366.2-412.3,366.2z M-412.7,349.6c-1.3,0-2.3,0.5-3.2,1.4
	c-0.9,0.9-1.4,2.2-1.6,3.9h9.3v-0.2c-0.1-1.6-0.5-2.8-1.3-3.7C-410.3,350.1-411.4,349.6-412.7,349.6z M-402.2,356.5
	c0-2.8,0.7-5.1,2-6.8c1.3-1.7,3.1-2.6,5.3-2.6c2.2,0,3.9,0.7,5.1,2.2v-9.7h3.2v26.3h-2.9l-0.2-2c-1.3,1.5-3,2.3-5.3,2.3
	c-2.1,0-3.9-0.9-5.2-2.6c-1.3-1.8-2-4-2-6.9L-402.2,356.5L-402.2,356.5z M-399,356.8c0,2.1,0.4,3.7,1.3,4.9s2.1,1.8,3.6,1.8
	c2,0,3.5-0.9,4.4-2.7v-8.5c-0.9-1.7-2.4-2.6-4.4-2.6c-1.5,0-2.8,0.6-3.6,1.8C-398.6,352.7-399,354.5-399,356.8z M-366,356.8
	c0,2.8-0.6,5.1-1.9,6.8c-1.3,1.7-3,2.6-5.2,2.6c-2.3,0-4.1-0.8-5.4-2.5l-0.2,2.1h-2.9v-26.2h3.2v9.8c1.3-1.6,3-2.4,5.3-2.4
	c2.2,0,4,0.8,5.3,2.5c1.3,1.7,1.9,4,1.9,7v0.3H-366z M-369.2,356.5c0-2.2-0.4-3.8-1.2-5c-0.8-1.2-2-1.8-3.6-1.8
	c-2.1,0-3.6,1-4.5,2.9v8c1,1.9,2.5,2.9,4.5,2.9c1.5,0,2.7-0.6,3.5-1.8C-369.7,360.5-369.2,358.8-369.2,356.5z M-350.6,365.9
	c-0.2-0.4-0.3-1-0.4-1.9c-1.5,1.5-3.2,2.3-5.3,2.3c-1.8,0-3.3-0.5-4.5-1.5c-1.2-1-1.7-2.3-1.7-3.9c0-1.9,0.7-3.4,2.2-4.5
	s3.5-1.6,6.2-1.6h3.1v-1.5c0-1.1-0.3-2-1-2.6c-0.7-0.7-1.6-1-2.9-1c-1.1,0-2.1,0.3-2.8,0.9c-0.8,0.6-1.1,1.3-1.1,2.1h-3.2
	c0-0.9,0.3-1.8,1-2.7c0.7-0.9,1.6-1.5,2.7-2.1c1.1-0.5,2.4-0.8,3.7-0.8c2.1,0,3.8,0.5,5,1.6c1.2,1.1,1.8,2.5,1.9,4.4v8.5
	c0,1.7,0.2,3,0.6,4.1v0.3h-3.5V365.9z M-355.8,363.5c1,0,1.9-0.3,2.8-0.8c0.9-0.5,1.5-1.2,1.9-2v-3.8h-2.5c-3.9,0-5.8,1.1-5.8,3.4
	c0,1,0.3,1.8,1,2.3C-357.7,363.2-356.9,363.5-355.8,363.5z M-335.5,363.6c1.1,0,2.1-0.3,3-1c0.8-0.7,1.3-1.5,1.4-2.6h3
	c-0.1,1.1-0.4,2.1-1.1,3c-0.7,1-1.6,1.7-2.7,2.3c-1.1,0.6-2.3,0.9-3.6,0.9c-2.5,0-4.5-0.8-6-2.5c-1.5-1.7-2.2-4-2.2-6.9v-0.5
	c0-1.8,0.3-3.4,1-4.8c0.7-1.4,1.6-2.5,2.8-3.3c1.2-0.8,2.7-1.2,4.4-1.2c2.1,0,3.8,0.6,5.2,1.9c1.4,1.2,2.1,2.9,2.2,4.8h-3
	c-0.1-1.2-0.5-2.2-1.4-2.9c-0.8-0.8-1.8-1.2-3-1.2c-1.6,0-2.9,0.6-3.7,1.7c-0.9,1.2-1.3,2.8-1.3,5v0.6c0,2.1,0.4,3.8,1.3,4.9
	C-338.4,363.1-337.2,363.6-335.5,363.6z M-319.5,357.3l-2,2.1v6.5h-3.2v-26.3h3.2v15.9l1.7-2l5.8-6.1h3.8l-7.2,7.7l8,10.8h-3.7
	L-319.5,357.3z"/>
<path class="st1" d="M-503.1,388.6l-3.2-2.4l11.1-14.8h59.5c45.7,0,97.6,0,111.5,0h16.8c2.3,0,4.2-1.9,4.2-4.2v-4.9h4v4.9
	c0,4.5-3.7,8.2-8.2,8.2h-16.8c-13.9,0-65.7,0-111.5,0h-57.5L-503.1,388.6z"/>
<path class="st1" d="M-528.6,443.3c0-1.8,0.4-3.4,1.1-4.9c0.7-1.4,1.7-2.6,3-3.3c1.3-0.8,2.7-1.2,4.4-1.2c2.5,0,4.6,0.9,6.1,2.6
	c1.6,1.7,2.3,4.1,2.3,7v0.2c0,1.8-0.3,3.4-1,4.9c-0.7,1.4-1.7,2.5-3,3.3c-1.3,0.8-2.7,1.2-4.4,1.2c-2.5,0-4.5-0.9-6.1-2.6
	c-1.5-1.7-2.3-4.1-2.3-6.9L-528.6,443.3L-528.6,443.3z M-525.4,443.6c0,2.1,0.5,3.7,1.4,4.9c1,1.2,2.2,1.9,3.8,1.9s2.9-0.6,3.8-1.9
	c0.9-1.3,1.4-3,1.4-5.3c0-2-0.5-3.7-1.5-4.9c-1-1.3-2.2-1.9-3.8-1.9s-2.8,0.6-3.8,1.9C-524.9,439.5-525.4,441.3-525.4,443.6z
	 M-492.2,443.6c0,2.8-0.6,5.1-1.9,6.8c-1.3,1.7-3,2.6-5.2,2.6s-4-0.7-5.3-2.1v8.9h-3.2v-25.6h2.9l0.2,2.1c1.3-1.6,3.1-2.4,5.4-2.4
	c2.2,0,4,0.8,5.3,2.5c1.3,1.7,1.9,4,1.9,7L-492.2,443.6L-492.2,443.6z M-495.3,443.3c0-2.1-0.4-3.7-1.3-4.9
	c-0.9-1.2-2.1-1.8-3.7-1.8c-1.9,0-3.3,0.8-4.3,2.5v8.8c0.9,1.7,2.4,2.5,4.3,2.5c1.5,0,2.7-0.6,3.6-1.8
	C-495.8,447.4-495.3,445.6-495.3,443.3z M-480.5,453c-2.5,0-4.5-0.8-6.1-2.5c-1.6-1.7-2.4-3.9-2.4-6.6v-0.6c0-1.8,0.3-3.5,1-4.9
	s1.7-2.6,2.9-3.4c1.3-0.8,2.6-1.2,4.1-1.2c2.4,0,4.3,0.8,5.6,2.4s2,3.9,2,6.8v1.3h-12.5c0,1.8,0.6,3.3,1.6,4.4s2.3,1.7,3.9,1.7
	c1.1,0,2.1-0.2,2.8-0.7c0.8-0.5,1.5-1.1,2-1.8l1.9,1.5C-475.1,451.8-477.4,453-480.5,453z M-480.9,436.4c-1.3,0-2.3,0.5-3.2,1.4
	c-0.9,0.9-1.4,2.2-1.6,3.9h9.3v-0.2c-0.1-1.6-0.5-2.8-1.3-3.7C-478.5,436.9-479.5,436.4-480.9,436.4z M-466.6,434.2l0.1,2.3
	c1.4-1.8,3.3-2.7,5.5-2.7c3.9,0,5.9,2.2,5.9,6.6v12.2h-3.2v-12.2c0-1.3-0.3-2.3-0.9-3c-0.6-0.6-1.5-1-2.8-1c-1,0-1.9,0.3-2.7,0.8
	c-0.8,0.5-1.4,1.3-1.8,2.2v13.2h-3.2v-18.5L-466.6,434.2L-466.6,434.2z"/>
<path class="st0" d="M-448.7,452.7v-16h-2.9v-2.4h2.9v-1.9c0-2,0.5-3.5,1.6-4.6s2.6-1.6,4.5-1.6c0.7,0,1.5,0.1,2.2,0.3l-0.2,2.6
	c-0.5-0.1-1.1-0.2-1.7-0.2c-1,0-1.8,0.3-2.4,0.9c-0.6,0.6-0.8,1.4-0.8,2.6v1.9h3.9v2.4h-3.9v16H-448.7z M-430.8,453
	c-2.5,0-4.5-0.8-6.1-2.5c-1.6-1.7-2.4-3.9-2.4-6.6v-0.6c0-1.8,0.3-3.5,1-4.9c0.7-1.4,1.7-2.6,2.9-3.4c1.3-0.8,2.6-1.2,4.1-1.2
	c2.4,0,4.3,0.8,5.6,2.4c1.3,1.6,2,3.9,2,6.8v1.3h-12.5c0,1.8,0.6,3.3,1.6,4.4s2.3,1.7,3.9,1.7c1.1,0,2.1-0.2,2.8-0.7
	c0.8-0.5,1.5-1.1,2-1.8l1.9,1.5C-425.4,451.8-427.7,453-430.8,453z M-431.2,436.4c-1.3,0-2.3,0.5-3.2,1.4s-1.4,2.2-1.6,3.9h9.3v-0.2
	c-0.1-1.6-0.5-2.8-1.3-3.7C-428.9,436.9-429.9,436.4-431.2,436.4z M-412.3,453c-2.5,0-4.5-0.8-6.1-2.5c-1.6-1.7-2.4-3.9-2.4-6.6
	v-0.6c0-1.8,0.3-3.5,1-4.9c0.7-1.4,1.7-2.6,2.9-3.4c1.3-0.8,2.6-1.2,4.1-1.2c2.4,0,4.3,0.8,5.6,2.4c1.3,1.6,2,3.9,2,6.8v1.3h-12.5
	c0,1.8,0.6,3.3,1.6,4.4s2.3,1.7,3.9,1.7c1.1,0,2.1-0.2,2.8-0.7c0.8-0.5,1.5-1.1,2-1.8l1.9,1.5C-406.9,451.8-409.2,453-412.3,453z
	 M-412.7,436.4c-1.3,0-2.3,0.5-3.2,1.4s-1.4,2.2-1.6,3.9h9.3v-0.2c-0.1-1.6-0.5-2.8-1.3-3.7C-410.3,436.9-411.4,436.4-412.7,436.4z
	 M-402.2,443.3c0-2.8,0.7-5.1,2-6.8c1.3-1.7,3.1-2.6,5.3-2.6c2.2,0,3.9,0.7,5.1,2.2v-9.6h3.2v26.3h-2.9l-0.2-2
	c-1.3,1.5-3,2.3-5.3,2.3c-2.1,0-3.9-0.9-5.2-2.6c-1.3-1.8-2-4-2-6.9L-402.2,443.3L-402.2,443.3z M-399,443.6c0,2.1,0.4,3.7,1.3,4.9
	c0.9,1.2,2.1,1.8,3.6,1.8c2,0,3.5-0.9,4.4-2.7v-8.5c-0.9-1.7-2.4-2.6-4.4-2.6c-1.5,0-2.8,0.6-3.6,1.8
	C-398.6,439.5-399,441.3-399,443.6z M-366,443.6c0,2.8-0.6,5.1-1.9,6.8c-1.3,1.7-3,2.6-5.2,2.6c-2.3,0-4.1-0.8-5.4-2.5l-0.2,2.1
	h-2.9v-26.3h3.2v9.8c1.3-1.6,3-2.4,5.3-2.4c2.2,0,4,0.8,5.3,2.5c1.3,1.7,1.9,4,1.9,7v0.4H-366z M-369.2,443.3c0-2.2-0.4-3.8-1.2-5
	c-0.8-1.2-2-1.8-3.6-1.8c-2.1,0-3.6,1-4.5,2.9v8c1,1.9,2.5,2.9,4.5,2.9c1.5,0,2.7-0.6,3.5-1.8C-369.6,447.4-369.2,445.6-369.2,443.3
	z M-350.6,452.7c-0.2-0.4-0.3-1-0.4-1.9c-1.5,1.5-3.2,2.3-5.3,2.3c-1.8,0-3.3-0.5-4.5-1.5c-1.2-1-1.7-2.3-1.7-3.9
	c0-1.9,0.7-3.4,2.2-4.5s3.5-1.6,6.2-1.6h3.1v-1.5c0-1.1-0.3-2-1-2.6c-0.7-0.7-1.6-1-2.9-1c-1.1,0-2.1,0.3-2.8,0.9
	c-0.8,0.6-1.1,1.3-1.1,2.1h-3.2c0-0.9,0.3-1.8,1-2.7c0.7-0.9,1.6-1.5,2.7-2.1c1.1-0.5,2.4-0.8,3.7-0.8c2.1,0,3.8,0.5,5,1.6
	c1.2,1.1,1.8,2.5,1.9,4.4v8.5c0,1.7,0.2,3,0.6,4.1v0.3h-3.5V452.7z M-355.8,450.3c1,0,1.9-0.3,2.8-0.8c0.9-0.5,1.5-1.2,1.9-2v-3.8
	h-2.5c-3.9,0-5.8,1.1-5.8,3.4c0,1,0.3,1.8,1,2.3C-357.7,450-356.9,450.3-355.8,450.3z M-335.5,450.4c1.1,0,2.1-0.3,3-1
	c0.8-0.7,1.3-1.5,1.4-2.6h3c-0.1,1.1-0.4,2.1-1.1,3c-0.7,1-1.6,1.7-2.7,2.3c-1.1,0.6-2.3,0.9-3.6,0.9c-2.5,0-4.5-0.8-6-2.5
	c-1.5-1.7-2.2-4-2.2-6.9v-0.5c0-1.8,0.3-3.4,1-4.8c0.7-1.4,1.6-2.5,2.8-3.3c1.2-0.8,2.7-1.2,4.4-1.2c2.1,0,3.8,0.6,5.2,1.9
	c1.4,1.2,2.1,2.9,2.2,4.8h-3c-0.1-1.2-0.5-2.2-1.4-2.9c-0.8-0.8-1.8-1.2-3-1.2c-1.6,0-2.9,0.6-3.7,1.7c-0.9,1.2-1.3,2.8-1.3,5v0.6
	c0,2.1,0.4,3.8,1.3,4.9C-338.4,449.9-337.2,450.4-335.5,450.4z M-319.5,444.1l-2,2.1v6.5h-3.2v-26.3h3.2v15.9l1.7-2l5.8-6.1h3.8
	l-7.2,7.7l8,10.8h-3.7L-319.5,444.1z"/>
<path class="st0" d="M-503.1,475.4l-3.2-2.4l11.1-14.8h59.5c45.7,0,97.6,0,111.5,0h16.8c2.3,0,4.2-1.9,4.2-4.2v-4.9h4v4.9
	c0,4.5-3.7,8.2-8.2,8.2h-16.8c-13.9,0-65.7,0-111.5,0h-57.5L-503.1,475.4z"/>
<path class="st2" d="M85.3,241.1c0-21.4,4-40.3,12.4-57.7c8.5-16.9,19.9-30.4,34.8-39.3c14.9-9.5,32.4-13.9,51.3-13.9
	c29.9,0,53.8,10.5,71.7,30.9c18.9,20.9,27.9,47.8,27.9,82.1v2.5c0,21.4-4,40.3-12.4,57.2c-8,16.9-19.4,29.9-34.8,39.3
	c-14.9,9.5-32.4,13.9-51.8,13.9c-29.4,0-53.3-10.5-71.7-30.9c-18.4-20.4-27.4-47.8-27.4-81.6C85.3,243.6,85.3,241.1,85.3,241.1z
	 M122.7,245.6c0,23.9,5.5,43.3,16.9,58.2c11.4,14.4,26.4,21.9,45.3,21.9s33.9-7.5,45.3-21.9c11-14.9,16.9-35.8,16.9-62.2
	c0-23.9-5.5-43.3-16.9-57.7c-11.4-14.9-26.4-22.4-45.3-22.4c-18.4,0-33.4,7.5-44.3,21.9C128.1,197.3,122.7,218.2,122.7,245.6z"/>
<path class="st1" d="M323.4,356.1v-199h-36.1v-29.9h36.1v-24.9c0-24.9,6.2-43.5,19.9-57.2c13.7-13.7,32.3-19.9,56-19.9
	c8.7,0,18.7,1.2,27.4,3.7l-2.5,32.3c-6.2-1.2-13.7-2.5-21.1-2.5c-12.4,0-22.4,3.7-29.9,11.2c-7.5,7.5-10,17.4-10,32.3V126h48.5v29.9
	h-48.5v199h-39.8V356.1z"/>
<path class="st1" d="M33.9,498.6l-22.4-16.8l77.2-102.9H512v28H102.8L33.9,498.6z"/>
<path class="st0" d="M-152.3,318.8h-64.6c-1.5,0-2.8-1.3-2.8-2.8v-64.6c0-1.5,1.3-2.8,2.8-2.8h64.6c1.5,0,2.8,1.3,2.8,2.8V316
	C-149.5,317.5-150.8,318.8-152.3,318.8z"/>
<path class="st2" d="M-208,281.6c0-2.9,0.5-5.5,1.7-7.9c1.2-2.3,2.7-4.2,4.8-5.4c2-1.3,4.4-1.9,7-1.9c4.1,0,7.4,1.4,9.8,4.2
	c2.6,2.9,3.8,6.6,3.8,11.3v0.3c0,2.9-0.5,5.5-1.7,7.8c-1.1,2.3-2.7,4.1-4.8,5.4c-2,1.3-4.4,1.9-7.1,1.9c-4,0-7.3-1.4-9.8-4.2
	c-2.5-2.8-3.8-6.6-3.8-11.2C-208,282-208,281.6-208,281.6z M-202.9,282.2c0,3.3,0.8,5.9,2.3,8c1.6,2,3.6,3,6.2,3s4.6-1,6.2-3
	c1.5-2,2.3-4.9,2.3-8.5c0-3.3-0.8-5.9-2.3-7.9c-1.6-2-3.6-3.1-6.2-3.1c-2.5,0-4.6,1-6.1,3C-202.2,275.6-202.9,278.5-202.9,282.2z"/>
<path class="st1" d="M-175.4,297.4v-27.3h-4.9V266h4.9v-3.4c0-3.4,0.9-6,2.7-7.8c1.9-1.9,4.4-2.7,7.7-2.7c1.2,0,2.6,0.2,3.8,0.5
	l-0.3,4.4c-0.9-0.2-1.9-0.3-2.9-0.3c-1.7,0-3.1,0.5-4.1,1.5c-1,1-1.4,2.4-1.4,4.4v3.2h6.7v4.1h-6.7v27.3h-5.5V297.4z"/>
<path class="st1" d="M-215.1,316.9l-3.1-2.3l10.6-14.1h68.5c2.2,0,4.3,3.8,0,3.8h-66.6L-215.1,316.9z"/>
<path class="st2" d="M-528.6,271.7c0-1.8,0.4-3.4,1.1-4.9c0.7-1.4,1.7-2.6,3-3.3c1.3-0.8,2.7-1.2,4.4-1.2c2.5,0,4.6,0.9,6.1,2.6
	c1.6,1.7,2.3,4.1,2.3,7v0.2c0,1.8-0.3,3.4-1,4.9c-0.7,1.4-1.7,2.5-3,3.3s-2.7,1.2-4.4,1.2c-2.5,0-4.5-0.9-6.1-2.6
	c-1.5-1.7-2.3-4.1-2.3-6.9L-528.6,271.7L-528.6,271.7z M-525.4,272.1c0,2.1,0.5,3.7,1.4,4.9c1,1.2,2.2,1.9,3.8,1.9s2.9-0.6,3.8-1.9
	c0.9-1.3,1.4-3,1.4-5.3c0-2-0.5-3.7-1.5-4.9c-1-1.3-2.2-1.9-3.8-1.9s-2.8,0.6-3.8,1.9C-524.9,268-525.4,269.7-525.4,272.1z
	 M-492.2,272.1c0,2.8-0.6,5.1-1.9,6.8c-1.3,1.7-3,2.6-5.2,2.6s-4-0.7-5.3-2.1v8.9h-3.2v-25.7h2.9l0.2,2.1c1.3-1.6,3.1-2.4,5.4-2.4
	c2.2,0,4,0.8,5.3,2.5s1.9,4,1.9,7L-492.2,272.1L-492.2,272.1z M-495.3,271.7c0-2.1-0.4-3.7-1.3-4.9s-2.1-1.8-3.7-1.8
	c-1.9,0-3.3,0.8-4.3,2.5v8.8c0.9,1.7,2.4,2.5,4.3,2.5c1.5,0,2.7-0.6,3.6-1.8C-495.8,275.9-495.3,274.1-495.3,271.7z M-480.5,281.4
	c-2.5,0-4.5-0.8-6.1-2.5c-1.6-1.7-2.4-3.9-2.4-6.6v-0.6c0-1.8,0.3-3.5,1-4.9s1.7-2.6,2.9-3.4c1.3-0.8,2.6-1.2,4.1-1.2
	c2.4,0,4.3,0.8,5.6,2.4c1.3,1.6,2,3.9,2,6.8v1.3h-12.5c0,1.8,0.6,3.3,1.6,4.4c1,1.1,2.3,1.7,3.9,1.7c1.1,0,2.1-0.2,2.8-0.7
	c0.8-0.5,1.5-1.1,2-1.8l1.9,1.5C-475.1,280.3-477.4,281.4-480.5,281.4z M-480.9,264.9c-1.3,0-2.3,0.5-3.2,1.4
	c-0.9,0.9-1.4,2.2-1.6,3.9h9.3V270c-0.1-1.6-0.5-2.8-1.3-3.7C-478.5,265.3-479.5,264.9-480.9,264.9z M-466.6,262.6l0.1,2.3
	c1.4-1.8,3.3-2.7,5.5-2.7c3.9,0,5.9,2.2,5.9,6.6V281h-3.2v-12.1c0-1.3-0.3-2.3-0.9-3c-0.6-0.6-1.5-1-2.8-1c-1,0-1.9,0.3-2.7,0.8
	c-0.8,0.5-1.4,1.3-1.8,2.2v13.2h-3.2v-18.5H-466.6z"/>
<path class="st0" d="M-448.7,281.1v-16h-2.9v-2.5h2.9v-1.9c0-2,0.5-3.5,1.6-4.6c1.1-1.1,2.6-1.6,4.5-1.6c0.7,0,1.5,0.1,2.2,0.3
	l-0.2,2.6c-0.5-0.1-1.1-0.2-1.7-0.2c-1,0-1.8,0.3-2.4,0.9c-0.6,0.6-0.8,1.4-0.8,2.6v1.9h3.9v2.4h-3.9v16L-448.7,281.1L-448.7,281.1z
	 M-430.8,281.4c-2.5,0-4.5-0.8-6.1-2.5c-1.6-1.7-2.4-3.9-2.4-6.6v-0.6c0-1.8,0.3-3.5,1-4.9c0.7-1.4,1.7-2.6,2.9-3.4
	c1.3-0.8,2.6-1.2,4.1-1.2c2.4,0,4.3,0.8,5.6,2.4c1.3,1.6,2,3.9,2,6.8v1.3h-12.5c0,1.8,0.6,3.3,1.6,4.4c1,1.1,2.3,1.7,3.9,1.7
	c1.1,0,2.1-0.2,2.8-0.7c0.8-0.5,1.5-1.1,2-1.8l1.9,1.5C-425.4,280.3-427.7,281.4-430.8,281.4z M-431.2,264.9c-1.3,0-2.3,0.5-3.2,1.4
	s-1.4,2.2-1.6,3.9h9.3V270c-0.1-1.6-0.5-2.8-1.3-3.7C-428.9,265.3-429.9,264.9-431.2,264.9z M-412.3,281.4c-2.5,0-4.5-0.8-6.1-2.5
	c-1.6-1.7-2.4-3.9-2.4-6.6v-0.6c0-1.8,0.3-3.5,1-4.9c0.7-1.4,1.7-2.6,2.9-3.4c1.3-0.8,2.6-1.2,4.1-1.2c2.4,0,4.3,0.8,5.6,2.4
	c1.3,1.6,2,3.9,2,6.8v1.3h-12.5c0,1.8,0.6,3.3,1.6,4.4c1,1.1,2.3,1.7,3.9,1.7c1.1,0,2.1-0.2,2.8-0.7c0.8-0.5,1.5-1.1,2-1.8l1.9,1.5
	C-406.9,280.3-409.2,281.4-412.3,281.4z M-412.7,264.9c-1.3,0-2.3,0.5-3.2,1.4s-1.4,2.2-1.6,3.9h9.3V270c-0.1-1.6-0.5-2.8-1.3-3.7
	C-410.3,265.3-411.4,264.9-412.7,264.9z M-402.2,271.7c0-2.8,0.7-5.1,2-6.8c1.3-1.7,3.1-2.6,5.3-2.6c2.2,0,3.9,0.7,5.1,2.2v-9.7h3.2
	v26.3h-2.9l-0.2-2c-1.3,1.5-3,2.3-5.3,2.3c-2.1,0-3.9-0.9-5.2-2.6c-1.3-1.8-2-4-2-6.9L-402.2,271.7L-402.2,271.7z M-399,272.1
	c0,2.1,0.4,3.7,1.3,4.9c0.9,1.2,2.1,1.8,3.6,1.8c2,0,3.5-0.9,4.4-2.7v-8.5c-0.9-1.7-2.4-2.6-4.4-2.6c-1.5,0-2.8,0.6-3.6,1.8
	C-398.6,267.9-399,269.7-399,272.1z M-366,272.1c0,2.8-0.6,5.1-1.9,6.8c-1.3,1.7-3,2.6-5.2,2.6c-2.3,0-4.1-0.8-5.4-2.5l-0.2,2.1
	h-2.9v-26.3h3.2v9.8c1.3-1.6,3-2.4,5.3-2.4c2.2,0,4,0.8,5.3,2.5c1.3,1.7,1.9,4,1.9,7v0.4H-366z M-369.2,271.7c0-2.2-0.4-3.8-1.2-5
	c-0.8-1.2-2-1.8-3.6-1.8c-2.1,0-3.6,1-4.5,2.9v8c1,1.9,2.5,2.9,4.5,2.9c1.5,0,2.7-0.6,3.5-1.8C-369.7,275.7-369.2,274.1-369.2,271.7
	z M-350.6,281.1c-0.2-0.4-0.3-1-0.4-1.9c-1.5,1.5-3.2,2.3-5.3,2.3c-1.8,0-3.3-0.5-4.5-1.5c-1.2-1-1.7-2.3-1.7-3.9
	c0-1.9,0.7-3.4,2.2-4.5c1.5-1.1,3.5-1.6,6.2-1.6h3.1v-1.5c0-1.1-0.3-2-1-2.6c-0.7-0.7-1.6-1-2.9-1c-1.1,0-2.1,0.3-2.8,0.9
	c-0.8,0.6-1.1,1.3-1.1,2.1h-3.2c0-0.9,0.3-1.8,1-2.7c0.7-0.9,1.6-1.5,2.7-2.1c1.1-0.5,2.4-0.8,3.7-0.8c2.1,0,3.8,0.5,5,1.6
	c1.2,1.1,1.8,2.5,1.9,4.4v8.5c0,1.7,0.2,3,0.6,4.1v0.3h-3.5V281.1z M-355.8,278.7c1,0,1.9-0.3,2.8-0.8c0.9-0.5,1.5-1.2,1.9-2v-3.8
	h-2.5c-3.9,0-5.8,1.1-5.8,3.4c0,1,0.3,1.8,1,2.3C-357.7,278.4-356.9,278.7-355.8,278.7z M-335.5,278.9c1.1,0,2.1-0.3,3-1
	c0.9-0.7,1.3-1.5,1.4-2.6h3c-0.1,1.1-0.4,2.1-1.1,3c-0.7,1-1.6,1.7-2.7,2.3c-1.1,0.6-2.3,0.9-3.6,0.9c-2.5,0-4.5-0.8-6-2.5
	c-1.5-1.7-2.2-4-2.2-6.9v-0.5c0-1.8,0.3-3.4,1-4.8c0.7-1.4,1.6-2.5,2.8-3.3c1.2-0.8,2.7-1.2,4.4-1.2c2.1,0,3.8,0.6,5.2,1.9
	c1.4,1.2,2.1,2.9,2.2,4.8h-3c-0.1-1.2-0.5-2.2-1.4-2.9c-0.8-0.8-1.8-1.2-3-1.2c-1.6,0-2.9,0.6-3.7,1.7c-0.9,1.2-1.3,2.8-1.3,5v0.6
	c0,2.1,0.4,3.8,1.3,4.9C-338.4,278.3-337.2,278.9-335.5,278.9z M-319.5,272.5l-2,2.1v6.5h-3.2v-26.3h3.2v15.9l1.7-2l5.8-6.1h3.8
	l-7.2,7.7l8,10.8h-3.7L-319.5,272.5z"/>
<path class="st0" d="M-503.1,303.8l-3.2-2.4l11.1-14.8h59.5c45.7,0,97.6,0,111.5,0h16.8c2.3,0,4.2-1.9,4.2-4.2v-4.9h4v4.9
	c0,4.5-3.7,8.2-8.2,8.2h-16.8c-13.9,0-65.7,0-111.5,0h-57.5L-503.1,303.8z"/>
</svg>
