<svg width="200" height="43" viewBox="0 0 200 43" fill="none" xmlns="http://www.w3.org/2000/svg">
<path d="M0 15.002C0 13.432 0.348736 12.0365 0.959024 10.7282C1.56931 9.50709 2.44115 8.46044 3.57454 7.84989C4.70793 7.15212 5.92851 6.80324 7.41064 6.80324C9.59024 6.80324 11.4211 7.58823 12.7289 9.07099C14.1238 10.5537 14.7341 12.6471 14.7341 15.1765V15.3509C14.7341 16.9209 14.4725 18.3164 13.8622 19.6247C13.252 20.8458 12.3801 21.8053 11.2467 22.503C10.1133 23.2008 8.89276 23.5497 7.41064 23.5497C5.23104 23.5497 3.48736 22.7647 2.09242 21.2819C0.784656 19.7992 0.087184 17.7059 0.087184 15.2637L0 15.002ZM2.78989 15.3509C2.78989 17.1825 3.22581 18.5781 4.01046 19.6247C4.8823 20.6714 5.92851 21.2819 7.32345 21.2819C8.7184 21.2819 9.85179 20.7586 10.6364 19.6247C11.4211 18.4909 11.857 17.0081 11.857 15.002C11.857 13.2576 11.4211 11.7748 10.5493 10.7282C9.67742 9.59431 8.63121 9.07099 7.23627 9.07099C5.84133 9.07099 4.79512 9.59431 3.92328 10.7282C3.22581 11.7748 2.78989 13.2576 2.78989 15.3509ZM31.735 15.3509C31.735 17.7931 31.2119 19.7992 30.0785 21.2819C28.9451 22.7647 27.4629 23.5497 25.5449 23.5497C23.6269 23.5497 22.0575 22.9391 20.9242 21.718V29.4807H18.1343V7.0649H20.6626L20.837 8.89655C21.9704 7.50101 23.5397 6.80324 25.5449 6.80324C27.4629 6.80324 29.0323 7.50101 30.1656 8.98377C31.299 10.4665 31.8221 12.4726 31.8221 15.0892L31.735 15.3509ZM29.0323 15.002C29.0323 13.1704 28.6835 11.7748 27.8989 10.7282C27.1142 9.68154 26.068 9.15821 24.6731 9.15821C23.0166 9.15821 21.796 9.85598 20.9242 11.3387V19.0142C21.7088 20.497 23.0166 21.1947 24.6731 21.1947C25.9808 21.1947 27.027 20.6714 27.8117 19.6247C28.5963 18.6653 29.0323 17.0953 29.0323 15.002ZM41.9355 23.4625C39.7559 23.4625 38.0122 22.7647 36.6173 21.2819C35.2223 19.7992 34.5248 17.8803 34.5248 15.5253V15.002C34.5248 13.432 34.7864 11.9493 35.3967 10.7282C36.007 9.50709 36.8788 8.46044 37.925 7.76267C39.0584 7.0649 40.1918 6.71602 41.4996 6.71602C43.592 6.71602 45.2485 7.41379 46.3819 8.80933C47.5153 10.2049 48.1255 12.2109 48.1255 14.7404V15.8742H37.2276C37.2276 17.4442 37.7507 18.7525 38.6225 19.712C39.4943 20.6714 40.6277 21.1947 42.0227 21.1947C42.9817 21.1947 43.8535 21.0203 44.4638 20.5842C45.1613 20.1481 45.7716 19.6247 46.2075 19.0142L47.864 20.3225C46.6434 22.503 44.6382 23.4625 41.9355 23.4625ZM41.5868 9.07099C40.4534 9.07099 39.5815 9.50709 38.7969 10.2921C38.0122 11.0771 37.5763 12.2109 37.4019 13.6937H45.51V13.5193C45.4228 12.1237 45.0741 11.0771 44.3766 10.2921C43.6792 9.41987 42.8073 9.07099 41.5868 9.07099ZM54.0541 7.0649L54.1412 9.07099C55.3618 7.50101 57.0183 6.71602 58.9364 6.71602C62.3365 6.71602 64.0802 8.63488 64.0802 12.4726V23.1136H61.2903V12.5598C61.2903 11.426 61.0288 10.5537 60.5057 9.9432C59.9826 9.41987 59.1979 9.07099 58.0645 9.07099C57.1927 9.07099 56.408 9.33265 55.7106 9.76876C55.0131 10.2049 54.49 10.9026 54.1412 11.6876V23.2008H51.3514V7.0649H54.0541Z" fill="#292929"/>
<path d="M69.66 23.2008V9.24544H67.1317V7.06491H69.66V5.40771C69.66 3.66329 70.0959 2.35497 71.0549 1.39554C72.014 0.436106 73.3217 0 74.9782 0C75.5885 0 76.286 0.0872211 76.8963 0.261663L76.7219 2.52941C76.286 2.44219 75.7629 2.35497 75.2398 2.35497C74.3679 2.35497 73.6705 2.61663 73.1473 3.13996C72.6242 3.66329 72.4499 4.36105 72.4499 5.40771V7.06491H75.85V9.15822H72.4499V23.1136L69.66 23.2008ZM85.2659 23.4625C83.0863 23.4625 81.3426 22.7647 79.9477 21.2819C78.5527 19.7992 77.8553 17.8803 77.8553 15.5254V15.002C77.8553 13.4321 78.1168 11.9493 78.7271 10.7282C79.3374 9.5071 80.2092 8.46045 81.2555 7.76268C82.3888 7.06491 83.5222 6.71602 84.83 6.71602C86.9224 6.71602 88.5789 7.41379 89.7123 8.80933C90.8457 10.2049 91.456 12.211 91.456 14.7404V15.8742H80.558C80.558 17.4442 81.0811 18.7525 81.9529 19.712C82.8248 20.6714 83.9582 21.1947 85.3531 21.1947C86.3121 21.1947 87.184 21.0203 87.7942 20.5842C88.4917 20.1481 89.102 19.6247 89.5379 19.0142L91.1944 20.3225C89.9738 22.503 87.9686 23.4625 85.2659 23.4625ZM84.9172 9.07099C83.7838 9.07099 82.9119 9.5071 82.1273 10.2921C81.3426 11.0771 80.9067 12.211 80.7323 13.6937H88.8405V13.5193C88.7533 12.1237 88.4045 11.0771 87.7071 10.2921C86.9224 9.41988 86.0506 9.07099 84.9172 9.07099ZM101.395 23.4625C99.2154 23.4625 97.4717 22.7647 96.0767 21.2819C94.6818 19.7992 93.9843 17.8803 93.9843 15.5254V15.002C93.9843 13.4321 94.2459 11.9493 94.8562 10.7282C95.4664 9.5071 96.3383 8.46045 97.3845 7.76268C98.5179 7.06491 99.6513 6.71602 100.959 6.71602C103.051 6.71602 104.708 7.41379 105.841 8.80933C106.975 10.2049 107.585 12.211 107.585 14.7404V15.8742H96.687C96.687 17.4442 97.2101 18.7525 98.082 19.712C98.9538 20.6714 100.087 21.1947 101.482 21.1947C102.441 21.1947 103.313 21.0203 103.923 20.5842C104.621 20.1481 105.231 19.6247 105.667 19.0142L107.323 20.3225C106.103 22.503 104.098 23.4625 101.395 23.4625ZM101.046 9.07099C99.9128 9.07099 99.041 9.5071 98.2563 10.2921C97.4717 11.0771 97.0357 12.211 96.8614 13.6937H104.969V13.5193C104.882 12.1237 104.534 11.0771 103.836 10.2921C103.139 9.41988 102.18 9.07099 101.046 9.07099ZM110.201 15.002C110.201 12.5598 110.811 10.5538 111.944 9.07099C113.078 7.58824 114.647 6.80325 116.565 6.80325C118.483 6.80325 119.965 7.41379 121.011 8.72211V0.261663H123.801V23.2008H121.273L121.099 21.4564C119.965 22.7647 118.483 23.4625 116.478 23.4625C114.647 23.4625 113.078 22.6775 111.944 21.1947C110.811 19.6247 110.201 17.7059 110.201 15.1765V15.002ZM112.99 15.3509C112.99 17.1826 113.339 18.5781 114.124 19.6247C114.908 20.6714 115.955 21.1947 117.262 21.1947C119.006 21.1947 120.314 20.4097 121.099 18.8398V11.426C120.314 9.94321 119.006 9.15822 117.262 9.15822C115.955 9.15822 114.821 9.68154 114.124 10.7282C113.339 11.6876 112.99 13.2576 112.99 15.3509ZM141.761 15.3509C141.761 17.7931 141.238 19.7992 140.105 21.2819C138.971 22.7647 137.489 23.5497 135.571 23.5497C133.566 23.5497 131.997 22.8519 130.863 21.3692L130.689 23.2008H128.16V0.261663H130.95V8.80933C132.084 7.41379 133.566 6.71602 135.571 6.71602C137.489 6.71602 139.058 7.41379 140.192 8.89655C141.325 10.3793 141.848 12.3854 141.848 15.002V15.3509H141.761ZM138.971 15.002C138.971 13.0832 138.622 11.6876 137.925 10.641C137.228 9.59432 136.181 9.07099 134.786 9.07099C132.956 9.07099 131.648 9.94321 130.863 11.6004V18.5781C131.735 20.2353 133.043 21.1075 134.786 21.1075C136.094 21.1075 137.14 20.5842 137.838 19.5375C138.535 18.4909 138.971 17.0953 138.971 15.002ZM155.187 23.2008C155.013 22.8519 154.926 22.3286 154.839 21.5436C153.531 22.8519 152.049 23.5497 150.218 23.5497C148.649 23.5497 147.341 23.1136 146.295 22.2414C145.248 21.3692 144.813 20.2353 144.813 18.8398C144.813 17.1826 145.423 15.8742 146.731 14.9148C148.038 13.9554 149.782 13.5193 152.136 13.5193H154.839V12.211C154.839 11.2515 154.577 10.4665 153.967 9.94321C153.357 9.33266 152.572 9.07099 151.439 9.07099C150.48 9.07099 149.608 9.33266 148.997 9.85598C148.3 10.3793 148.038 10.9899 148.038 11.6876H145.248C145.248 10.9026 145.51 10.1176 146.12 9.33266C146.731 8.54767 147.515 8.02434 148.474 7.50102C149.433 7.06491 150.567 6.80325 151.7 6.80325C153.531 6.80325 155.013 7.23935 156.059 8.19878C157.105 9.15822 157.629 10.3793 157.716 12.0365V19.4503C157.716 20.9331 157.89 22.0669 158.239 23.0264V23.288H155.187V23.2008ZM150.654 21.1075C151.526 21.1075 152.31 20.8458 153.095 20.4097C153.88 19.9736 154.403 19.3631 154.752 18.6653V15.3509H152.572C149.172 15.3509 147.515 16.3103 147.515 18.3164C147.515 19.1886 147.777 19.8864 148.387 20.3225C148.997 20.8458 149.695 21.1075 150.654 21.1075ZM168.352 21.2819C169.311 21.2819 170.183 21.0203 170.968 20.4097C171.752 19.7992 172.101 19.1014 172.188 18.142H174.804C174.717 19.1014 174.455 19.9736 173.845 20.7586C173.235 21.6308 172.45 22.2414 171.491 22.7647C170.532 23.288 169.486 23.5497 168.352 23.5497C166.173 23.5497 164.429 22.8519 163.121 21.3692C161.813 19.8864 161.203 17.8803 161.203 15.3509V14.9148C161.203 13.3448 161.465 11.9493 162.075 10.7282C162.685 9.5071 163.47 8.54767 164.516 7.8499C165.562 7.15213 166.87 6.80325 168.352 6.80325C170.183 6.80325 171.665 7.32657 172.886 8.46045C174.106 9.5071 174.717 10.9899 174.804 12.6471H172.188C172.101 11.6004 171.752 10.7282 170.968 10.1176C170.27 9.41988 169.398 9.07099 168.352 9.07099C166.957 9.07099 165.824 9.59432 165.126 10.5538C164.342 11.6004 163.993 12.9959 163.993 14.9148V15.4381C163.993 17.2698 164.342 18.7525 165.126 19.712C165.824 20.7586 166.87 21.2819 168.352 21.2819ZM182.302 15.6998L180.558 17.5314V23.2008H177.768V0.261663H180.558V14.1298L182.04 12.3854L187.097 7.06491H190.41L184.133 13.7809L191.107 23.2008H187.881L182.302 15.6998Z" fill="#FF6A49"/>
<path d="M22.2319 43L19.442 40.9067L29.1194 27.998H80.9939C120.837 27.998 166.085 27.998 178.204 27.998H192.851C194.856 27.998 196.513 26.3408 196.513 24.3347V20.0609H200V24.3347C200 28.2596 196.774 31.4868 192.851 31.4868H178.204C166.085 31.4868 120.924 31.4868 80.9939 31.4868H30.8631L22.2319 43Z" fill="#FF6A49"/>
</svg>
